<?xml version="1.0" encoding="utf-8" standalone="no"?>
<!DOCTYPE svg PUBLIC "-//W3C//DTD SVG 1.1//EN"
  "http://www.w3.org/Graphics/SVG/1.1/DTD/svg11.dtd">
<svg xmlns:xlink="http://www.w3.org/1999/xlink" width="184.32pt" height="184.32pt" viewBox="0 0 184.32 184.32" xmlns="http://www.w3.org/2000/svg" version="1.1">
 <metadata>
  <rdf:RDF xmlns:dc="http://purl.org/dc/elements/1.1/" xmlns:cc="http://creativecommons.org/ns#" xmlns:rdf="http://www.w3.org/1999/02/22-rdf-syntax-ns#">
   <cc:Work>
    <dc:type rdf:resource="http://purl.org/dc/dcmitype/StillImage"/>
    <dc:date>2025-08-05T19:43:11.184806</dc:date>
    <dc:format>image/svg+xml</dc:format>
    <dc:creator>
     <cc:Agent>
      <dc:title>Matplotlib v3.10.3, https://matplotlib.org/</dc:title>
     </cc:Agent>
    </dc:creator>
   </cc:Work>
  </rdf:RDF>
 </metadata>
 <defs>
  <style type="text/css">*{stroke-linejoin: round; stroke-linecap: butt}</style>
 </defs>
 <g id="figure_1">
  <g id="patch_1">
   <path d="M 0 184.32 
L 184.32 184.32 
L 184.32 0 
L 0 0 
L 0 184.32 
z
" style="fill: none"/>
  </g>
  <g id="axes_1">
   <g id="patch_2">
    <path d="M 56.95907 39.478085 
C 50.910226 43.519794 45.602414 48.573251 41.268771 54.416492 
C 36.935128 60.259733 33.640047 66.805934 31.52826 73.767563 
C 29.416473 80.729192 28.519358 88.002808 28.87632 95.268928 
C 29.233281 102.535048 30.839016 109.685707 33.622993 116.406822 
C 36.40697 123.127938 40.327824 129.319643 45.213337 134.709975 
C 50.09885 140.100308 55.876429 144.609175 62.292303 148.038531 
C 68.708177 151.467887 75.667014 153.766777 82.863157 154.834224 
C 90.0593 155.901671 97.385825 155.721815 104.520923 154.302555 
C 111.656021 152.883296 118.493675 150.245722 124.73355 146.505685 
C 130.973425 142.765647 136.522805 137.978719 141.137942 132.355158 
C 145.753079 126.731598 149.365398 120.354964 151.816232 113.505341 
C 154.267066 106.655718 155.52 99.434883 155.52 92.16 
C 155.52 84.885117 154.267066 77.664282 151.816232 70.814659 
C 149.365398 63.965036 145.753079 57.588402 141.137942 51.964842 
C 136.522805 46.341281 130.973425 41.554353 124.73355 37.814315 
C 118.493675 34.074278 111.656021 31.436704 104.520923 30.017445 
" clip-path="url(#p869e202e1d)" style="fill: none; stroke: #e6daa6; stroke-width: 7.119752; stroke-linejoin: miter"/>
   </g>
   <g id="patch_3">
    <path d="M 125.046948 52.087138 
C 121.105708 48.852646 116.708764 46.217219 111.998309 44.266085 
C 107.287854 42.314951 102.315217 41.06937 97.241209 40.569624 
C 92.1672 40.069878 87.04711 40.321411 82.046518 41.316091 
C 77.045925 42.310771 72.219322 44.037757 67.722793 46.441202 
C 63.226265 48.844646 59.108811 51.898358 55.503584 55.503584 
C 51.898358 59.108811 48.844646 63.226265 46.441202 67.722793 
C 44.037757 72.219322 42.310771 77.045925 41.316091 82.046518 
C 40.321411 87.04711 40.069878 92.1672 40.569624 97.241209 
C 41.06937 102.315217 42.314951 107.287854 44.266085 111.998309 
C 46.217219 116.708764 48.852646 121.105708 52.087138 125.046948 
C 55.32163 128.988188 59.119942 132.430777 63.359239 135.263385 
C 67.598537 138.095993 72.232625 140.287753 77.111642 141.767787 
C 81.99066 143.247821 87.06144 144 92.16 144 
C 97.25856 144 102.32934 143.247821 107.208358 141.767787 
C 112.087375 140.287753 116.721463 138.095993 120.960761 135.263385 
C 125.200058 132.430777 128.99837 128.988188 132.232862 125.046948 
" clip-path="url(#p869e202e1d)" style="fill: none; stroke: #00bfff; stroke-width: 7.119752; stroke-linejoin: miter"/>
   </g>
   <g id="patch_4">
    <path d="M 117.738737 60.992219 
C 111.705238 56.040653 104.3618 52.945977 96.604159 52.085671 
C 88.846519 51.225365 81.003464 52.635891 74.031671 56.145196 
C 67.059879 59.654502 61.254831 65.113853 57.324614 71.857332 
C 53.394398 78.600811 51.505584 86.342613 51.888567 94.138409 
C 52.27155 101.934205 54.910098 109.453591 59.482366 115.77937 
C 64.054634 122.105148 70.366839 126.969218 77.649032 129.77827 
C 84.931225 132.587322 92.87477 133.222302 100.510731 131.605756 
C 108.146691 129.989211 115.151437 126.189654 120.670545 120.670545 
" clip-path="url(#p869e202e1d)" style="fill: none; stroke: #9370db; stroke-width: 7.119752; stroke-linejoin: miter"/>
   </g>
   <g id="patch_5">
    <path d="M 120.559176 120.781915 
C 125.28328 116.05781 128.315814 110.019445 128.983903 104.006642 
C 129.651993 97.993839 127.902278 92.486835 124.122994 88.707551 
C 120.343711 84.928268 114.836706 83.178553 108.823903 83.846642 
C 102.8111 84.514731 96.772735 87.547265 92.048631 92.271369 
" clip-path="url(#p869e202e1d)" style="fill: none; stroke: #9370db; stroke-width: 7.119752; stroke-linejoin: miter"/>
   </g>
   <g id="line2d_1">
    <path d="M 46.177358 32.577048 
L 92.16 8.64 
L 138.142642 32.577048 
" clip-path="url(#p869e202e1d)" style="fill: none; stroke: #b7e1a1; stroke-width: 7.119752; stroke-linecap: square"/>
   </g>
   <g id="line2d_2">
    <path d="M 52.253549 155.52 
L 17.335405 135.36 
L 17.335405 95.04 
" clip-path="url(#p869e202e1d)" style="fill: none; stroke: #d6b4fc; stroke-width: 7.119752; stroke-linecap: square"/>
   </g>
   <g id="line2d_3">
    <path d="M 166.984595 95.04 
L 166.984595 135.36 
L 132.066451 155.52 
" clip-path="url(#p869e202e1d)" style="fill: none; stroke: #95d0fc; stroke-width: 7.119752; stroke-linecap: square"/>
   </g>
  </g>
 </g>
 <defs>
  <clipPath id="p869e202e1d">
   <rect x="0" y="0" width="184.32" height="184.32"/>
  </clipPath>
 </defs>
</svg>
