<?xml version="1.0" encoding="utf-8" standalone="no"?>
<!DOCTYPE svg PUBLIC "-//W3C//DTD SVG 1.1//EN"
  "http://www.w3.org/Graphics/SVG/1.1/DTD/svg11.dtd">
<svg xmlns:xlink="http://www.w3.org/1999/xlink" width="194.4pt" height="194.4pt" viewBox="0 0 194.4 194.4" xmlns="http://www.w3.org/2000/svg" version="1.1">
 <metadata>
  <rdf:RDF xmlns:dc="http://purl.org/dc/elements/1.1/" xmlns:cc="http://creativecommons.org/ns#" xmlns:rdf="http://www.w3.org/1999/02/22-rdf-syntax-ns#">
   <cc:Work>
    <dc:type rdf:resource="http://purl.org/dc/dcmitype/StillImage"/>
    <dc:date>2025-01-11T17:20:40.262480</dc:date>
    <dc:format>image/svg+xml</dc:format>
    <dc:creator>
     <cc:Agent>
      <dc:title>Matplotlib v3.9.1, https://matplotlib.org/</dc:title>
     </cc:Agent>
    </dc:creator>
   </cc:Work>
  </rdf:RDF>
 </metadata>
 <defs>
  <style type="text/css">*{stroke-linejoin: round; stroke-linecap: butt}</style>
 </defs>
 <g id="figure_1">
  <g id="patch_1">
   <path d="M 0 194.4 
L 194.4 194.4 
L 194.4 0 
L 0 0 
L 0 194.4 
z
" style="fill: none"/>
  </g>
  <g id="axes_1">
   <g id="patch_2">
    <path d="M 60.074019 41.637043 
C 53.694379 45.899783 48.096296 51.229601 43.525657 57.392394 
C 38.955018 63.555187 35.479737 70.459383 33.252462 77.801726 
C 31.025187 85.144069 30.079011 92.815461 30.455494 100.478947 
C 30.831977 108.142433 32.525524 115.684144 35.46175 122.77282 
C 38.397976 129.861497 42.533252 136.391811 47.685941 142.076927 
C 52.83863 147.762044 58.932171 152.517489 65.698913 156.134388 
C 72.465655 159.751288 79.805054 162.175897 87.394736 163.30172 
C 94.984418 164.427543 102.711612 164.237851 110.236911 162.740976 
C 117.76221 161.244101 124.973797 158.462285 131.554916 154.517714 
C 138.136034 150.573144 143.988896 145.52443 148.856424 139.593331 
C 153.723951 133.662232 157.533818 126.936876 160.118682 119.712664 
C 162.703546 112.488453 164.025 104.872728 164.025 97.2 
C 164.025 89.527272 162.703546 81.911547 160.118682 74.687336 
C 157.533818 67.463124 153.723951 60.737768 148.856424 54.806669 
C 143.988896 48.87557 138.136034 43.826856 131.554916 39.882286 
C 124.973797 35.937715 117.76221 33.155899 110.236911 31.659024 
" clip-path="url(#pb1cdf1b1be)" style="fill: none; stroke: #e6daa6; stroke-width: 7.509113; stroke-linejoin: miter"/>
   </g>
   <g id="patch_3">
    <path d="M 131.885453 54.935653 
C 127.728676 51.524275 123.091275 48.744724 118.123217 46.686887 
C 113.155159 44.62905 107.910581 43.315351 102.559087 42.788275 
C 97.207593 42.261199 91.807499 42.526489 86.533437 43.575565 
C 81.259374 44.624641 76.168816 46.446072 71.426383 48.980955 
C 66.683951 51.515838 62.341324 54.73655 58.538937 58.538937 
C 54.73655 62.341324 51.515838 66.683951 48.980955 71.426383 
C 46.446072 76.168816 44.624641 81.259374 43.575565 86.533437 
C 42.526489 91.807499 42.261199 97.207593 42.788275 102.559087 
C 43.315351 107.910581 44.62905 113.155159 46.686887 118.123217 
C 48.744724 123.091275 51.524275 127.728676 54.935653 131.885453 
C 58.347032 136.042229 62.353063 139.673085 66.824198 142.660601 
C 71.295332 145.648117 76.182846 147.95974 81.328685 149.520713 
C 86.474524 151.081686 91.822613 151.875 97.2 151.875 
C 102.577387 151.875 107.925476 151.081686 113.071315 149.520713 
C 118.217154 147.95974 123.104668 145.648117 127.575802 142.660601 
C 132.046937 139.673085 136.052968 136.042229 139.464347 131.885453 
" clip-path="url(#pb1cdf1b1be)" style="fill: none; stroke: #00bfff; stroke-width: 7.509113; stroke-linejoin: miter"/>
   </g>
   <g id="patch_4">
    <path d="M 124.177574 64.32773 
C 117.814118 59.105377 110.069086 55.84146 101.887199 54.934106 
C 93.705313 54.026752 85.43334 55.514416 78.080278 59.215637 
C 70.727216 62.916857 64.604705 68.674767 60.459554 75.78703 
C 56.314404 82.899293 54.322296 91.064474 54.726223 99.286603 
C 55.130151 107.508732 57.912994 115.439334 62.735308 122.111054 
C 67.557622 128.782774 74.215025 133.912847 81.895464 136.875519 
C 89.575902 139.838191 97.953859 140.507896 106.007411 138.802946 
C 114.060963 137.097996 121.448781 133.09065 127.269716 127.269716 
" clip-path="url(#pb1cdf1b1be)" style="fill: none; stroke: #9370db; stroke-width: 7.509113; stroke-linejoin: miter"/>
   </g>
   <g id="patch_5">
    <path d="M 127.152256 127.387176 
C 132.13471 122.404722 135.333085 116.036133 136.037711 109.694505 
C 136.742336 103.352877 134.896933 97.544708 130.910971 93.558745 
C 126.925008 89.572782 121.116839 87.72738 114.775211 88.432005 
C 108.433582 89.136631 102.064994 92.335006 97.08254 97.31746 
" clip-path="url(#pb1cdf1b1be)" style="fill: none; stroke: #9370db; stroke-width: 7.509113; stroke-linejoin: miter"/>
   </g>
   <g id="line2d_1">
    <path d="M 48.702683 34.358605 
L 97.2 9.1125 
L 145.697317 34.358605 
" clip-path="url(#pb1cdf1b1be)" style="fill: none; stroke: #b7e1a1; stroke-width: 7.509113; stroke-linecap: square"/>
   </g>
   <g id="line2d_2">
    <path d="M 55.111165 164.025 
L 18.283435 142.7625 
L 18.283435 100.2375 
" clip-path="url(#pb1cdf1b1be)" style="fill: none; stroke: #d6b4fc; stroke-width: 7.509113; stroke-linecap: square"/>
   </g>
   <g id="line2d_3">
    <path d="M 176.116565 100.2375 
L 176.116565 142.7625 
L 139.288835 164.025 
" clip-path="url(#pb1cdf1b1be)" style="fill: none; stroke: #95d0fc; stroke-width: 7.509113; stroke-linecap: square"/>
   </g>
  </g>
 </g>
 <defs>
  <clipPath id="pb1cdf1b1be">
   <rect x="0" y="0" width="194.4" height="194.4"/>
  </clipPath>
 </defs>
</svg>
