<?xml version="1.0" encoding="utf-8" standalone="no"?>
<!DOCTYPE svg PUBLIC "-//W3C//DTD SVG 1.1//EN"
  "http://www.w3.org/Graphics/SVG/1.1/DTD/svg11.dtd">
<svg xmlns:xlink="http://www.w3.org/1999/xlink" width="288pt" height="288pt" viewBox="0 0 288 288" xmlns="http://www.w3.org/2000/svg" version="1.1">
 <metadata>
  <rdf:RDF xmlns:dc="http://purl.org/dc/elements/1.1/" xmlns:cc="http://creativecommons.org/ns#" xmlns:rdf="http://www.w3.org/1999/02/22-rdf-syntax-ns#">
   <cc:Work>
    <dc:type rdf:resource="http://purl.org/dc/dcmitype/StillImage"/>
    <dc:date>2024-10-09T23:58:05.674541</dc:date>
    <dc:format>image/svg+xml</dc:format>
    <dc:creator>
     <cc:Agent>
      <dc:title>Matplotlib v3.9.1, https://matplotlib.org/</dc:title>
     </cc:Agent>
    </dc:creator>
   </cc:Work>
  </rdf:RDF>
 </metadata>
 <defs>
  <style type="text/css">*{stroke-linejoin: round; stroke-linecap: butt}</style>
 </defs>
 <g id="figure_1">
  <g id="patch_1">
   <path d="M 0 288 
L 288 288 
L 288 0 
L 0 0 
L 0 288 
z
" style="fill: none"/>
  </g>
  <g id="axes_1">
   <g id="patch_2">
    <path d="M 88.998547 61.684508 
C 79.547228 67.999678 71.253771 75.895705 64.482454 85.025769 
C 57.711138 94.155833 52.562574 104.384272 49.262907 115.261817 
C 45.963239 126.139362 44.561497 137.504387 45.11925 148.8577 
C 45.677002 160.211012 48.185962 171.383917 52.535926 181.88566 
C 56.885891 192.387403 63.012225 202.061942 70.645839 210.484337 
C 78.279452 218.906731 87.30692 225.951836 97.331723 231.310205 
C 107.356526 236.668574 118.229709 240.260588 129.473683 241.928474 
C 140.717657 243.59636 152.165351 243.315335 163.313942 241.097743 
C 174.462533 238.88015 185.146367 234.758941 194.896172 228.915132 
C 204.645977 223.071324 213.316883 215.591749 220.528035 206.804935 
C 227.739186 198.018122 233.383434 188.054631 237.212862 177.352095 
C 241.042291 166.64956 243 155.367005 243 144 
C 243 132.632995 241.042291 121.35044 237.212862 110.647905 
C 233.383434 99.945369 227.739186 89.981878 220.528035 81.195065 
C 213.316883 72.408251 204.645977 64.928676 194.896172 59.084868 
C 185.146367 53.241059 174.462533 49.11985 163.313942 46.902257 
" clip-path="url(#p51422497c4)" style="fill: none; stroke: #c0c0c0; stroke-width: 12.375; stroke-linejoin: miter"/>
   </g>
   <g id="patch_3">
    <path d="M 195.385856 81.386153 
C 189.227668 76.332259 182.357444 72.214405 174.997358 69.165758 
C 167.637272 66.11711 159.867527 64.170891 151.939388 63.390037 
C 144.011249 62.609184 136.01111 63.002205 128.197684 64.556392 
C 120.384258 66.110579 112.84269 68.808996 105.816864 72.564378 
C 98.791039 76.31976 92.357517 81.091185 86.724351 86.724351 
C 81.091185 92.357517 76.31976 98.791039 72.564378 105.816864 
C 68.808996 112.84269 66.110579 120.384258 64.556392 128.197684 
C 63.002205 136.01111 62.609184 144.011249 63.390037 151.939388 
C 64.170891 159.867527 66.11711 167.637272 69.165758 174.997358 
C 72.214405 182.357444 76.332259 189.227668 81.386153 195.385856 
C 86.440047 201.544044 92.374909 206.923088 98.998811 211.349039 
C 105.622714 215.774989 112.863476 219.199614 120.486941 221.512167 
C 128.110406 223.82472 136.0335 225 144 225 
C 151.9665 225 159.889594 223.82472 167.513059 221.512167 
C 175.136524 219.199614 182.377286 215.774989 189.001189 211.349039 
C 195.625091 206.923088 201.559953 201.544044 206.613847 195.385856 
" clip-path="url(#p51422497c4)" style="fill: none; stroke: #00bfff; stroke-width: 12.375; stroke-linejoin: miter"/>
   </g>
   <g id="patch_4">
    <path d="M 183.966777 95.300341 
C 174.539434 87.563521 163.065312 82.728089 150.943999 81.383861 
C 138.822686 80.039633 126.567912 82.243579 115.674486 87.726869 
C 104.781061 93.210159 95.710674 101.740396 89.56971 112.277082 
C 83.428746 122.813768 80.477475 134.910332 81.075886 147.091263 
C 81.674297 159.272195 85.797028 171.021236 92.941197 180.905265 
C 100.085366 190.789294 109.948186 198.389403 121.326613 202.778546 
C 132.70504 207.16769 145.116828 208.159846 157.048017 205.633994 
C 168.979205 203.108142 179.92412 197.171334 188.547727 188.547727 
" clip-path="url(#p51422497c4)" style="fill: none; stroke: #9370db; stroke-width: 12.375; stroke-linejoin: miter"/>
   </g>
   <g id="patch_5">
    <path d="M 188.373713 188.721742 
C 195.755126 181.340329 200.49346 171.905383 201.537349 162.510378 
C 202.581238 153.115373 199.847309 144.510679 193.942179 138.605549 
C 188.037048 132.700418 179.432354 129.966489 170.037349 131.010378 
C 160.642344 132.054268 151.207398 136.792602 143.825985 144.174015 
" clip-path="url(#p51422497c4)" style="fill: none; stroke: #9370db; stroke-width: 12.375; stroke-linejoin: miter"/>
   </g>
   <g id="line2d_1">
    <path d="M 72.152123 50.901638 
L 144 13.5 
L 215.847877 50.901638 
" clip-path="url(#p51422497c4)" style="fill: none; stroke: #b7e1a1; stroke-width: 12.375; stroke-linecap: square"/>
   </g>
   <g id="line2d_2">
    <path d="M 81.646171 243 
L 27.08657 211.5 
L 27.08657 148.5 
" clip-path="url(#p51422497c4)" style="fill: none; stroke: #d6b4fc; stroke-width: 12.375; stroke-linecap: square"/>
   </g>
   <g id="line2d_3">
    <path d="M 260.91343 148.5 
L 260.91343 211.5 
L 206.353829 243 
" clip-path="url(#p51422497c4)" style="fill: none; stroke: #95d0fc; stroke-width: 12.375; stroke-linecap: square"/>
   </g>
  </g>
 </g>
 <defs>
  <clipPath id="p51422497c4">
   <rect x="0" y="0" width="288" height="288"/>
  </clipPath>
 </defs>
</svg>
