<?xml version="1.0" encoding="utf-8" standalone="no"?>
<!DOCTYPE svg PUBLIC "-//W3C//DTD SVG 1.1//EN"
  "http://www.w3.org/Graphics/SVG/1.1/DTD/svg11.dtd">
<svg xmlns:xlink="http://www.w3.org/1999/xlink" width="184.32pt" height="184.32pt" viewBox="0 0 184.32 184.32" xmlns="http://www.w3.org/2000/svg" version="1.1">
 <metadata>
  <rdf:RDF xmlns:dc="http://purl.org/dc/elements/1.1/" xmlns:cc="http://creativecommons.org/ns#" xmlns:rdf="http://www.w3.org/1999/02/22-rdf-syntax-ns#">
   <cc:Work>
    <dc:type rdf:resource="http://purl.org/dc/dcmitype/StillImage"/>
    <dc:date>2025-01-18T18:36:22.257861</dc:date>
    <dc:format>image/svg+xml</dc:format>
    <dc:creator>
     <cc:Agent>
      <dc:title>Matplotlib v3.9.1, https://matplotlib.org/</dc:title>
     </cc:Agent>
    </dc:creator>
   </cc:Work>
  </rdf:RDF>
 </metadata>
 <defs>
  <style type="text/css">*{stroke-linejoin: round; stroke-linecap: butt}</style>
 </defs>
 <g id="figure_1">
  <g id="patch_1">
   <path d="M 0 184.32 
L 184.32 184.32 
L 184.32 0 
L 0 0 
L 0 184.32 
z
" style="fill: none"/>
  </g>
  <g id="axes_1">
   <g id="patch_2">
    <path d="M 56.95907 39.478085 
C 50.910226 43.519794 45.602414 48.573251 41.268771 54.416492 
C 36.935128 60.259733 33.640047 66.805934 31.52826 73.767563 
C 29.416473 80.729192 28.519358 88.002808 28.87632 95.268928 
C 29.233281 102.535048 30.839016 109.685707 33.622993 116.406822 
C 36.40697 123.127938 40.327824 129.319643 45.213337 134.709975 
C 50.09885 140.100308 55.876429 144.609175 62.292303 148.038531 
C 68.708177 151.467887 75.667014 153.766777 82.863157 154.834224 
C 90.0593 155.901671 97.385825 155.721815 104.520923 154.302555 
C 111.656021 152.883296 118.493675 150.245722 124.73355 146.505685 
C 130.973425 142.765647 136.522805 137.978719 141.137942 132.355158 
C 145.753079 126.731598 149.365398 120.354964 151.816232 113.505341 
C 154.267066 106.655718 155.52 99.434883 155.52 92.16 
C 155.52 84.885117 154.267066 77.664282 151.816232 70.814659 
C 149.365398 63.965036 145.753079 57.588402 141.137942 51.964842 
C 136.522805 46.341281 130.973425 41.554353 124.73355 37.814315 
C 118.493675 34.074278 111.656021 31.436704 104.520923 30.017445 
" clip-path="url(#pbb9056cfac)" style="fill: none; stroke: #e6daa6; stroke-width: 7.119752; stroke-linejoin: miter"/>
   </g>
   <g id="patch_3">
    <path d="M 125.046948 52.087138 
C 121.105708 48.852646 116.708764 46.217219 111.998309 44.266085 
C 107.287854 42.314951 102.315217 41.06937 97.241209 40.569624 
C 92.1672 40.069878 87.04711 40.321411 82.046518 41.316091 
C 77.045925 42.310771 72.219322 44.037757 67.722793 46.441202 
C 63.226265 48.844646 59.108811 51.898358 55.503584 55.503584 
C 51.898358 59.108811 48.844646 63.226265 46.441202 67.722793 
C 44.037757 72.219322 42.310771 77.045925 41.316091 82.046518 
C 40.321411 87.04711 40.069878 92.1672 40.569624 97.241209 
C 41.06937 102.315217 42.314951 107.287854 44.266085 111.998309 
C 46.217219 116.708764 48.852646 121.105708 52.087138 125.046948 
C 55.32163 128.988188 59.119942 132.430777 63.359239 135.263385 
C 67.598537 138.095993 72.232625 140.287753 77.111642 141.767787 
C 81.99066 143.247821 87.06144 144 92.16 144 
C 97.25856 144 102.32934 143.247821 107.208358 141.767787 
C 112.087375 140.287753 116.721463 138.095993 120.960761 135.263385 
C 125.200058 132.430777 128.99837 128.988188 132.232862 125.046948 
" clip-path="url(#pbb9056cfac)" style="fill: none; stroke: #00bfff; stroke-width: 7.119752; stroke-linejoin: miter"/>
   </g>
   <g id="patch_4">
    <path d="M 77.281268 128.080436 
C 82.592404 130.280381 88.325944 131.275244 94.067751 130.993167 
C 99.809558 130.71109 105.417976 129.159032 110.487905 126.449099 
C 115.557834 123.739165 119.964193 119.938214 123.388709 115.320789 
C 126.813224 110.703364 129.17141 105.383383 130.292932 99.745112 
C 131.414454 94.10684 131.271643 88.28938 129.874815 82.712931 
C 128.477987 77.136481 125.861603 71.938619 122.214646 67.494789 
C 118.56769 63.050959 113.980134 59.470796 108.783342 57.012896 
C 103.58655 54.554997 97.908732 53.28 92.16 53.28 
" clip-path="url(#pbb9056cfac)" style="fill: none; stroke: #5e9b8a; stroke-width: 10.679627; stroke-linejoin: miter"/>
   </g>
  </g>
 </g>
 <defs>
  <clipPath id="pbb9056cfac">
   <rect x="0" y="0" width="184.32" height="184.32"/>
  </clipPath>
 </defs>
</svg>
