<?xml version="1.0" encoding="utf-8" standalone="no"?>
<!DOCTYPE svg PUBLIC "-//W3C//DTD SVG 1.1//EN"
  "http://www.w3.org/Graphics/SVG/1.1/DTD/svg11.dtd">
<svg xmlns:xlink="http://www.w3.org/1999/xlink" width="288pt" height="288pt" viewBox="0 0 288 288" xmlns="http://www.w3.org/2000/svg" version="1.1">
 <metadata>
  <rdf:RDF xmlns:dc="http://purl.org/dc/elements/1.1/" xmlns:cc="http://creativecommons.org/ns#" xmlns:rdf="http://www.w3.org/1999/02/22-rdf-syntax-ns#">
   <cc:Work>
    <dc:type rdf:resource="http://purl.org/dc/dcmitype/StillImage"/>
    <dc:date>2024-11-29T20:52:12.956550</dc:date>
    <dc:format>image/svg+xml</dc:format>
    <dc:creator>
     <cc:Agent>
      <dc:title>Matplotlib v3.9.1, https://matplotlib.org/</dc:title>
     </cc:Agent>
    </dc:creator>
   </cc:Work>
  </rdf:RDF>
 </metadata>
 <defs>
  <style type="text/css">*{stroke-linejoin: round; stroke-linecap: butt}</style>
 </defs>
 <g id="figure_1">
  <g id="patch_1">
   <path d="M 0 288 
L 288 288 
L 288 0 
L 0 0 
L 0 288 
z
" style="fill: none"/>
  </g>
  <g id="axes_1">
   <g id="patch_2">
    <path d="M 88.998547 61.684508 
C 79.547228 67.999678 71.253771 75.895705 64.482454 85.025769 
C 57.711138 94.155833 52.562574 104.384272 49.262907 115.261817 
C 45.963239 126.139362 44.561497 137.504387 45.11925 148.8577 
C 45.677002 160.211012 48.185962 171.383917 52.535926 181.88566 
C 56.885891 192.387403 63.012225 202.061942 70.645839 210.484337 
C 78.279452 218.906731 87.30692 225.951836 97.331723 231.310205 
C 107.356526 236.668574 118.229709 240.260588 129.473683 241.928474 
C 140.717657 243.59636 152.165351 243.315335 163.313942 241.097743 
C 174.462533 238.88015 185.146367 234.758941 194.896172 228.915132 
C 204.645977 223.071324 213.316883 215.591749 220.528035 206.804935 
C 227.739186 198.018122 233.383434 188.054631 237.212862 177.352095 
C 241.042291 166.64956 243 155.367005 243 144 
C 243 132.632995 241.042291 121.35044 237.212862 110.647905 
C 233.383434 99.945369 227.739186 89.981878 220.528035 81.195065 
C 213.316883 72.408251 204.645977 64.928676 194.896172 59.084868 
C 185.146367 53.241059 174.462533 49.11985 163.313942 46.902257 
" clip-path="url(#pbf70b3ea46)" style="fill: none; stroke: #c0c0c0; stroke-width: 12.375; stroke-linejoin: miter"/>
   </g>
   <g id="patch_3">
    <path d="M 195.385856 81.386153 
C 189.227668 76.332259 182.357444 72.214405 174.997358 69.165758 
C 167.637272 66.11711 159.867527 64.170891 151.939388 63.390037 
C 144.011249 62.609184 136.01111 63.002205 128.197684 64.556392 
C 120.384258 66.110579 112.84269 68.808996 105.816864 72.564378 
C 98.791039 76.31976 92.357517 81.091185 86.724351 86.724351 
C 81.091185 92.357517 76.31976 98.791039 72.564378 105.816864 
C 68.808996 112.84269 66.110579 120.384258 64.556392 128.197684 
C 63.002205 136.01111 62.609184 144.011249 63.390037 151.939388 
C 64.170891 159.867527 66.11711 167.637272 69.165758 174.997358 
C 72.214405 182.357444 76.332259 189.227668 81.386153 195.385856 
C 86.440047 201.544044 92.374909 206.923088 98.998811 211.349039 
C 105.622714 215.774989 112.863476 219.199614 120.486941 221.512167 
C 128.110406 223.82472 136.0335 225 144 225 
C 151.9665 225 159.889594 223.82472 167.513059 221.512167 
C 175.136524 219.199614 182.377286 215.774989 189.001189 211.349039 
C 195.625091 206.923088 201.559953 201.544044 206.613847 195.385856 
" clip-path="url(#pbf70b3ea46)" style="fill: none; stroke: #5e9b8a; stroke-width: 12.375; stroke-linejoin: miter"/>
   </g>
   <g id="patch_4">
    <path d="M 209.38324 241.025934 
C 225.273887 230.317643 238.293203 215.86774 247.292882 198.950709 
C 256.292562 182.033678 261 163.161946 261 144 
C 261 124.838054 256.292562 105.966322 247.292882 89.049291 
C 238.293203 72.13226 225.273887 57.682357 209.38324 46.974066 
" clip-path="url(#pbf70b3ea46)" style="fill: none; stroke: #95d0fc; stroke-width: 12.375; stroke-linejoin: miter"/>
   </g>
   <g id="patch_5">
    <path d="M 237.948228 240.94705 
C 250.935485 228.361522 261.262328 213.293656 268.31414 196.640238 
C 275.365951 179.98682 279 162.084921 279 144 
C 279 125.915079 275.365951 108.01318 268.31414 91.359762 
C 261.262328 74.706344 250.935485 59.638478 237.948228 47.05295 
" clip-path="url(#pbf70b3ea46)" style="fill: none; stroke: #d6b4fc; stroke-width: 12.375; stroke-linejoin: miter"/>
   </g>
  </g>
 </g>
 <defs>
  <clipPath id="pbf70b3ea46">
   <rect x="0" y="0" width="288" height="288"/>
  </clipPath>
 </defs>
</svg>
