<?xml version="1.0" encoding="utf-8" standalone="no"?>
<!DOCTYPE svg PUBLIC "-//W3C//DTD SVG 1.1//EN"
  "http://www.w3.org/Graphics/SVG/1.1/DTD/svg11.dtd">
<svg xmlns:xlink="http://www.w3.org/1999/xlink" width="184.32pt" height="184.32pt" viewBox="0 0 184.32 184.32" xmlns="http://www.w3.org/2000/svg" version="1.1">
 <metadata>
  <rdf:RDF xmlns:dc="http://purl.org/dc/elements/1.1/" xmlns:cc="http://creativecommons.org/ns#" xmlns:rdf="http://www.w3.org/1999/02/22-rdf-syntax-ns#">
   <cc:Work>
    <dc:type rdf:resource="http://purl.org/dc/dcmitype/StillImage"/>
    <dc:date>2025-01-18T18:36:22.292040</dc:date>
    <dc:format>image/svg+xml</dc:format>
    <dc:creator>
     <cc:Agent>
      <dc:title>Matplotlib v3.9.1, https://matplotlib.org/</dc:title>
     </cc:Agent>
    </dc:creator>
   </cc:Work>
  </rdf:RDF>
 </metadata>
 <defs>
  <style type="text/css">*{stroke-linejoin: round; stroke-linecap: butt}</style>
 </defs>
 <g id="figure_1">
  <g id="patch_1">
   <path d="M 0 184.32 
L 184.32 184.32 
L 184.32 0 
L 0 0 
L 0 184.32 
z
" style="fill: none"/>
  </g>
  <g id="axes_1">
   <g id="patch_2">
    <path d="M 39.67907 39.478085 
C 33.630226 43.519794 28.322414 48.573251 23.988771 54.416492 
C 19.655128 60.259733 16.360047 66.805934 14.24826 73.767563 
C 12.136473 80.729192 11.239358 88.002808 11.59632 95.268928 
C 11.953281 102.535048 13.559016 109.685707 16.342993 116.406822 
C 19.12697 123.127938 23.047824 129.319643 27.933337 134.709975 
C 32.81885 140.100308 38.596429 144.609175 45.012303 148.038531 
C 51.428177 151.467887 58.387014 153.766777 65.583157 154.834224 
C 72.7793 155.901671 80.105825 155.721815 87.240923 154.302555 
C 94.376021 152.883296 101.213675 150.245722 107.45355 146.505685 
C 113.693425 142.765647 119.242805 137.978719 123.857942 132.355158 
C 128.473079 126.731598 132.085398 120.354964 134.536232 113.505341 
C 136.987066 106.655718 138.24 99.434883 138.24 92.16 
C 138.24 84.885117 136.987066 77.664282 134.536232 70.814659 
C 132.085398 63.965036 128.473079 57.588402 123.857942 51.964842 
C 119.242805 46.341281 113.693425 41.554353 107.45355 37.814315 
C 101.213675 34.074278 94.376021 31.436704 87.240923 30.017445 
" clip-path="url(#p59718ba256)" style="fill: none; stroke: #b7e1a1; stroke-width: 10.08; stroke-linejoin: miter"/>
   </g>
   <g id="patch_3">
    <path d="M 104.112843 56.539678 
C 100.609518 53.664574 96.701124 51.321973 92.514053 49.587631 
C 88.326981 47.853289 83.90686 46.746107 79.39663 46.301888 
C 74.8864 45.857669 70.335209 46.081255 65.890238 46.965414 
C 61.445267 47.849574 57.154952 49.384673 53.158038 51.521068 
C 49.161124 53.657463 45.501165 56.371874 42.29652 59.57652 
C 39.091874 62.781165 36.377463 66.441124 34.241068 70.438038 
C 32.104673 74.434952 30.569574 78.725267 29.685414 83.170238 
C 28.801255 87.615209 28.577669 92.1664 29.021888 96.67663 
C 29.466107 101.18686 30.573289 105.606981 32.307631 109.794053 
C 34.041973 113.981124 36.384574 117.889518 39.259678 121.392843 
C 42.134782 124.896167 45.511059 127.956246 49.279324 130.47412 
C 53.047588 132.991994 57.166778 134.940225 61.503682 136.255811 
C 65.840587 137.571396 70.347947 138.24 74.88 138.24 
C 79.412053 138.24 83.919413 137.571396 88.256318 136.255811 
C 92.593222 134.940225 96.712412 132.991994 100.480676 130.47412 
C 104.248941 127.956246 107.625218 124.896167 110.500322 121.392843 
" clip-path="url(#p59718ba256)" style="fill: none; stroke: #ffd700; stroke-width: 11.52; stroke-linejoin: miter"/>
   </g>
   <g id="patch_4">
    <path d="M 125.123948 153.382428 
C 134.176194 145.953442 141.46912 136.608421 146.475952 126.022363 
C 151.482784 115.436306 154.08 103.870379 154.08 92.16 
C 154.08 80.449621 151.482784 68.883694 146.475952 58.297637 
C 141.46912 47.711579 134.176194 38.366558 125.123948 30.937572 
" clip-path="url(#p59718ba256)" style="fill: none; stroke: #95d0fc; stroke-width: 10.8; stroke-linejoin: miter"/>
   </g>
   <g id="patch_5">
    <path d="M 148.243968 154.818748 
C 163.159479 137.354927 171.36 115.126443 171.36 92.16 
C 171.36 69.193557 163.159479 46.965073 148.243968 29.501252 
" clip-path="url(#p59718ba256)" style="fill: none; stroke: #d6b4fc; stroke-width: 11.52; stroke-linejoin: miter"/>
   </g>
  </g>
 </g>
 <defs>
  <clipPath id="p59718ba256">
   <rect x="0" y="0" width="184.32" height="184.32"/>
  </clipPath>
 </defs>
</svg>
