<?xml version="1.0" encoding="utf-8" standalone="no"?>
<!DOCTYPE svg PUBLIC "-//W3C//DTD SVG 1.1//EN"
  "http://www.w3.org/Graphics/SVG/1.1/DTD/svg11.dtd">
<svg xmlns:xlink="http://www.w3.org/1999/xlink" width="288pt" height="288pt" viewBox="0 0 288 288" xmlns="http://www.w3.org/2000/svg" version="1.1">
 <metadata>
  <rdf:RDF xmlns:dc="http://purl.org/dc/elements/1.1/" xmlns:cc="http://creativecommons.org/ns#" xmlns:rdf="http://www.w3.org/1999/02/22-rdf-syntax-ns#">
   <cc:Work>
    <dc:type rdf:resource="http://purl.org/dc/dcmitype/StillImage"/>
    <dc:date>2024-12-01T17:50:00.980860</dc:date>
    <dc:format>image/svg+xml</dc:format>
    <dc:creator>
     <cc:Agent>
      <dc:title>Matplotlib v3.9.1, https://matplotlib.org/</dc:title>
     </cc:Agent>
    </dc:creator>
   </cc:Work>
  </rdf:RDF>
 </metadata>
 <defs>
  <style type="text/css">*{stroke-linejoin: round; stroke-linecap: butt}</style>
 </defs>
 <g id="figure_1">
  <g id="patch_1">
   <path d="M 0 288 
L 288 288 
L 288 0 
L 0 0 
L 0 288 
z
" style="fill: none"/>
  </g>
  <g id="axes_1">
   <g id="patch_2">
    <path d="M 57.498547 61.684508 
C 48.047228 67.999678 39.753771 75.895705 32.982454 85.025769 
C 26.211138 94.155833 21.062574 104.384272 17.762907 115.261817 
C 14.463239 126.139362 13.061497 137.504387 13.61925 148.8577 
C 14.177002 160.211012 16.685962 171.383917 21.035926 181.88566 
C 25.385891 192.387403 31.512225 202.061942 39.145839 210.484337 
C 46.779452 218.906731 55.80692 225.951836 65.831723 231.310205 
C 75.856526 236.668574 86.729709 240.260588 97.973683 241.928474 
C 109.217657 243.59636 120.665351 243.315335 131.813942 241.097743 
C 142.962533 238.88015 153.646367 234.758941 163.396172 228.915132 
C 173.145977 223.071324 181.816883 215.591749 189.028035 206.804935 
C 196.239186 198.018122 201.883434 188.054631 205.712862 177.352095 
C 209.542291 166.64956 211.5 155.367005 211.5 144 
C 211.5 132.632995 209.542291 121.35044 205.712862 110.647905 
C 201.883434 99.945369 196.239186 89.981878 189.028035 81.195065 
C 181.816883 72.408251 173.145977 64.928676 163.396172 59.084868 
C 153.646367 53.241059 142.962533 49.11985 131.813942 46.902257 
" clip-path="url(#p0818130cc6)" style="fill: none; stroke: #b7e1a1; stroke-width: 12.375; stroke-linejoin: miter"/>
   </g>
   <g id="patch_3">
    <path d="M 163.885856 81.386153 
C 157.727668 76.332259 150.857444 72.214405 143.497358 69.165758 
C 136.137272 66.11711 128.367527 64.170891 120.439388 63.390037 
C 112.511249 62.609184 104.51111 63.002205 96.697684 64.556392 
C 88.884258 66.110579 81.34269 68.808996 74.316864 72.564378 
C 67.291039 76.31976 60.857517 81.091185 55.224351 86.724351 
C 49.591185 92.357517 44.81976 98.791039 41.064378 105.816864 
C 37.308996 112.84269 34.610579 120.384258 33.056392 128.197684 
C 31.502205 136.01111 31.109184 144.011249 31.890037 151.939388 
C 32.670891 159.867527 34.61711 167.637272 37.665758 174.997358 
C 40.714405 182.357444 44.832259 189.227668 49.886153 195.385856 
C 54.940047 201.544044 60.874909 206.923088 67.498811 211.349039 
C 74.122714 215.774989 81.363476 219.199614 88.986941 221.512167 
C 96.610406 223.82472 104.5335 225 112.5 225 
C 120.4665 225 128.389594 223.82472 136.013059 221.512167 
C 143.636524 219.199614 150.877286 215.774989 157.501189 211.349039 
C 164.125091 206.923088 170.059953 201.544044 175.113847 195.385856 
" clip-path="url(#p0818130cc6)" style="fill: none; stroke: #e6daa6; stroke-width: 12.375; stroke-linejoin: miter"/>
   </g>
   <g id="patch_4">
    <path d="M 192.433554 241.399317 
C 206.834854 229.580476 218.437236 214.713397 226.402651 197.871942 
C 234.368066 181.030487 238.5 162.630149 238.5 144 
C 238.5 125.369851 234.368066 106.969513 226.402651 90.128058 
C 218.437236 73.286603 206.834854 58.419524 192.433554 46.600683 
" clip-path="url(#p0818130cc6)" style="fill: none; stroke: #95d0fc; stroke-width: 21.375; stroke-linejoin: miter"/>
   </g>
   <g id="patch_5">
    <path d="M 232.26394 246.288068 
C 256.612956 217.779033 270 181.491861 270 144 
C 270 106.508139 256.612956 70.220967 232.26394 41.711932 
" clip-path="url(#p0818130cc6)" style="fill: none; stroke: #d6b4fc; stroke-width: 21.375; stroke-linejoin: miter"/>
   </g>
  </g>
 </g>
 <defs>
  <clipPath id="p0818130cc6">
   <rect x="0" y="0" width="288" height="288"/>
  </clipPath>
 </defs>
</svg>
