<?xml version="1.0" encoding="utf-8" standalone="no"?>
<!DOCTYPE svg PUBLIC "-//W3C//DTD SVG 1.1//EN"
  "http://www.w3.org/Graphics/SVG/1.1/DTD/svg11.dtd">
<svg xmlns:xlink="http://www.w3.org/1999/xlink" width="288pt" height="288pt" viewBox="0 0 288 288" xmlns="http://www.w3.org/2000/svg" version="1.1">
 <metadata>
  <rdf:RDF xmlns:dc="http://purl.org/dc/elements/1.1/" xmlns:cc="http://creativecommons.org/ns#" xmlns:rdf="http://www.w3.org/1999/02/22-rdf-syntax-ns#">
   <cc:Work>
    <dc:type rdf:resource="http://purl.org/dc/dcmitype/StillImage"/>
    <dc:date>2025-01-08T14:55:28.259795</dc:date>
    <dc:format>image/svg+xml</dc:format>
    <dc:creator>
     <cc:Agent>
      <dc:title>Matplotlib v3.9.1, https://matplotlib.org/</dc:title>
     </cc:Agent>
    </dc:creator>
   </cc:Work>
  </rdf:RDF>
 </metadata>
 <defs>
  <style type="text/css">*{stroke-linejoin: round; stroke-linecap: butt}</style>
 </defs>
 <g id="figure_1">
  <g id="patch_1">
   <path d="M 0 288 
L 288 288 
L 288 0 
L 0 0 
L 0 288 
z
" style="fill: none"/>
  </g>
  <g id="axes_1">
   <g id="patch_2">
    <path d="M 61.998547 61.684508 
C 52.547228 67.999678 44.253771 75.895705 37.482454 85.025769 
C 30.711138 94.155833 25.562574 104.384272 22.262907 115.261817 
C 18.963239 126.139362 17.561497 137.504387 18.11925 148.8577 
C 18.677002 160.211012 21.185962 171.383917 25.535926 181.88566 
C 29.885891 192.387403 36.012225 202.061942 43.645839 210.484337 
C 51.279452 218.906731 60.30692 225.951836 70.331723 231.310205 
C 80.356526 236.668574 91.229709 240.260588 102.473683 241.928474 
C 113.717657 243.59636 125.165351 243.315335 136.313942 241.097743 
C 147.462533 238.88015 158.146367 234.758941 167.896172 228.915132 
C 177.645977 223.071324 186.316883 215.591749 193.528035 206.804935 
C 200.739186 198.018122 206.383434 188.054631 210.212862 177.352095 
C 214.042291 166.64956 216 155.367005 216 144 
C 216 132.632995 214.042291 121.35044 210.212862 110.647905 
C 206.383434 99.945369 200.739186 89.981878 193.528035 81.195065 
C 186.316883 72.408251 177.645977 64.928676 167.896172 59.084868 
C 158.146367 53.241059 147.462533 49.11985 136.313942 46.902257 
" clip-path="url(#p22951d1965)" style="fill: none; stroke: #b7e1a1; stroke-width: 15.75; stroke-linejoin: miter"/>
   </g>
   <g id="patch_3">
    <path d="M 162.676316 88.343247 
C 157.202372 83.850897 151.095506 80.190583 144.553207 77.480674 
C 138.010908 74.770765 131.104469 73.040792 124.057234 72.3467 
C 117.01 71.652608 109.898764 72.00196 102.953497 73.38346 
C 96.008229 74.764959 89.304613 77.163552 83.059435 80.501669 
C 76.814257 83.839786 71.09557 88.081053 66.088312 93.088312 
C 61.081053 98.09557 56.839786 103.814257 53.501669 110.059435 
C 50.163552 116.304613 47.764959 123.008229 46.38346 129.953497 
C 45.00196 136.898764 44.652608 144.01 45.3467 151.057234 
C 46.040792 158.104469 47.770765 165.010908 50.480674 171.553207 
C 53.190583 178.095506 56.850897 184.202372 61.343247 189.676316 
C 65.835598 195.150261 71.11103 199.931634 76.998943 203.865812 
C 82.886857 207.79999 89.32309 210.844102 96.099503 212.899704 
C 102.875917 214.955307 109.918667 216 117 216 
C 124.081333 216 131.124083 214.955307 137.900497 212.899704 
C 144.67691 210.844102 151.113143 207.79999 157.001057 203.865812 
C 162.88897 199.931634 168.164402 195.150261 172.656753 189.676316 
" clip-path="url(#p22951d1965)" style="fill: none; stroke: #ffd700; stroke-width: 18; stroke-linejoin: miter"/>
   </g>
   <g id="patch_4">
    <path d="M 195.506169 239.660044 
C 209.650303 228.052253 221.045499 213.450658 228.868675 196.909943 
C 236.691851 180.369228 240.75 162.297468 240.75 144 
C 240.75 125.702532 236.691851 107.630772 228.868675 91.090057 
C 221.045499 74.549342 209.650303 59.947747 195.506169 48.339956 
" clip-path="url(#p22951d1965)" style="fill: none; stroke: #95d0fc; stroke-width: 16.875; stroke-linejoin: miter"/>
   </g>
   <g id="patch_5">
    <path d="M 231.631199 241.904293 
C 254.936686 214.617074 267.75 179.885067 267.75 144 
C 267.75 108.114933 254.936686 73.382926 231.631199 46.095707 
" clip-path="url(#p22951d1965)" style="fill: none; stroke: #d6b4fc; stroke-width: 18; stroke-linejoin: miter"/>
   </g>
  </g>
 </g>
 <defs>
  <clipPath id="p22951d1965">
   <rect x="0" y="0" width="288" height="288"/>
  </clipPath>
 </defs>
</svg>
