<?xml version="1.0" encoding="utf-8" standalone="no"?>
<!DOCTYPE svg PUBLIC "-//W3C//DTD SVG 1.1//EN"
  "http://www.w3.org/Graphics/SVG/1.1/DTD/svg11.dtd">
<svg xmlns:xlink="http://www.w3.org/1999/xlink" width="288pt" height="288pt" viewBox="0 0 288 288" xmlns="http://www.w3.org/2000/svg" version="1.1">
 <metadata>
  <rdf:RDF xmlns:dc="http://purl.org/dc/elements/1.1/" xmlns:cc="http://creativecommons.org/ns#" xmlns:rdf="http://www.w3.org/1999/02/22-rdf-syntax-ns#">
   <cc:Work>
    <dc:type rdf:resource="http://purl.org/dc/dcmitype/StillImage"/>
    <dc:date>2024-12-01T18:16:35.893327</dc:date>
    <dc:format>image/svg+xml</dc:format>
    <dc:creator>
     <cc:Agent>
      <dc:title>Matplotlib v3.9.1, https://matplotlib.org/</dc:title>
     </cc:Agent>
    </dc:creator>
   </cc:Work>
  </rdf:RDF>
 </metadata>
 <defs>
  <style type="text/css">*{stroke-linejoin: round; stroke-linecap: butt}</style>
 </defs>
 <g id="figure_1">
  <g id="patch_1">
   <path d="M 0 288 
L 288 288 
L 288 0 
L 0 0 
L 0 288 
z
" style="fill: none"/>
  </g>
  <g id="axes_1">
   <g id="patch_2">
    <path d="M 61.998547 61.684508 
C 52.547228 67.999678 44.253771 75.895705 37.482454 85.025769 
C 30.711138 94.155833 25.562574 104.384272 22.262907 115.261817 
C 18.963239 126.139362 17.561497 137.504387 18.11925 148.8577 
C 18.677002 160.211012 21.185962 171.383917 25.535926 181.88566 
C 29.885891 192.387403 36.012225 202.061942 43.645839 210.484337 
C 51.279452 218.906731 60.30692 225.951836 70.331723 231.310205 
C 80.356526 236.668574 91.229709 240.260588 102.473683 241.928474 
C 113.717657 243.59636 125.165351 243.315335 136.313942 241.097743 
C 147.462533 238.88015 158.146367 234.758941 167.896172 228.915132 
C 177.645977 223.071324 186.316883 215.591749 193.528035 206.804935 
C 200.739186 198.018122 206.383434 188.054631 210.212862 177.352095 
C 214.042291 166.64956 216 155.367005 216 144 
C 216 132.632995 214.042291 121.35044 210.212862 110.647905 
C 206.383434 99.945369 200.739186 89.981878 193.528035 81.195065 
C 186.316883 72.408251 177.645977 64.928676 167.896172 59.084868 
C 158.146367 53.241059 147.462533 49.11985 136.313942 46.902257 
" clip-path="url(#p00a7138340)" style="fill: none; stroke: #b7e1a1; stroke-width: 12.375; stroke-linejoin: miter"/>
   </g>
   <g id="patch_3">
    <path d="M 168.385856 81.386153 
C 162.227668 76.332259 155.357444 72.214405 147.997358 69.165758 
C 140.637272 66.11711 132.867527 64.170891 124.939388 63.390037 
C 117.011249 62.609184 109.01111 63.002205 101.197684 64.556392 
C 93.384258 66.110579 85.84269 68.808996 78.816864 72.564378 
C 71.791039 76.31976 65.357517 81.091185 59.724351 86.724351 
C 54.091185 92.357517 49.31976 98.791039 45.564378 105.816864 
C 41.808996 112.84269 39.110579 120.384258 37.556392 128.197684 
C 36.002205 136.01111 35.609184 144.011249 36.390037 151.939388 
C 37.170891 159.867527 39.11711 167.637272 42.165758 174.997358 
C 45.214405 182.357444 49.332259 189.227668 54.386153 195.385856 
C 59.440047 201.544044 65.374909 206.923088 71.998811 211.349039 
C 78.622714 215.774989 85.863476 219.199614 93.486941 221.512167 
C 101.110406 223.82472 109.0335 225 117 225 
C 124.9665 225 132.889594 223.82472 140.513059 221.512167 
C 148.136524 219.199614 155.377286 215.774989 162.001189 211.349039 
C 168.625091 206.923088 174.559953 201.544044 179.613847 195.385856 
" clip-path="url(#p00a7138340)" style="fill: none; stroke: #e6daa6; stroke-width: 12.375; stroke-linejoin: miter"/>
   </g>
   <g id="patch_4">
    <path d="M 195.506169 239.660044 
C 209.650303 228.052253 221.045499 213.450658 228.868675 196.909943 
C 236.691851 180.369228 240.75 162.297468 240.75 144 
C 240.75 125.702532 236.691851 107.630772 228.868675 91.090057 
C 221.045499 74.549342 209.650303 59.947747 195.506169 48.339956 
" clip-path="url(#p00a7138340)" style="fill: none; stroke: #95d0fc; stroke-width: 16.875; stroke-linejoin: miter"/>
   </g>
   <g id="patch_5">
    <path d="M 231.631199 241.904293 
C 254.936686 214.617074 267.75 179.885067 267.75 144 
C 267.75 108.114933 254.936686 73.382926 231.631199 46.095707 
" clip-path="url(#p00a7138340)" style="fill: none; stroke: #d6b4fc; stroke-width: 18; stroke-linejoin: miter"/>
   </g>
  </g>
 </g>
 <defs>
  <clipPath id="p00a7138340">
   <rect x="0" y="0" width="288" height="288"/>
  </clipPath>
 </defs>
</svg>
