<?xml version="1.0" encoding="utf-8" standalone="no"?>
<!DOCTYPE svg PUBLIC "-//W3C//DTD SVG 1.1//EN"
  "http://www.w3.org/Graphics/SVG/1.1/DTD/svg11.dtd">
<svg xmlns:xlink="http://www.w3.org/1999/xlink" width="194.4pt" height="194.4pt" viewBox="0 0 194.4 194.4" xmlns="http://www.w3.org/2000/svg" version="1.1">
 <metadata>
  <rdf:RDF xmlns:dc="http://purl.org/dc/elements/1.1/" xmlns:cc="http://creativecommons.org/ns#" xmlns:rdf="http://www.w3.org/1999/02/22-rdf-syntax-ns#">
   <cc:Work>
    <dc:type rdf:resource="http://purl.org/dc/dcmitype/StillImage"/>
    <dc:date>2025-01-11T17:20:40.379270</dc:date>
    <dc:format>image/svg+xml</dc:format>
    <dc:creator>
     <cc:Agent>
      <dc:title>Matplotlib v3.9.1, https://matplotlib.org/</dc:title>
     </cc:Agent>
    </dc:creator>
   </cc:Work>
  </rdf:RDF>
 </metadata>
 <defs>
  <style type="text/css">*{stroke-linejoin: round; stroke-linecap: butt}</style>
 </defs>
 <g id="figure_1">
  <g id="patch_1">
   <path d="M 0 194.4 
L 194.4 194.4 
L 194.4 0 
L 0 0 
L 0 194.4 
z
" style="fill: none"/>
  </g>
  <g id="axes_1">
   <g id="patch_2">
    <path d="M 41.849019 41.637043 
C 35.469379 45.899783 29.871296 51.229601 25.300657 57.392394 
C 20.730018 63.555187 17.254737 70.459383 15.027462 77.801726 
C 12.800187 85.144069 11.854011 92.815461 12.230494 100.478947 
C 12.606977 108.142433 14.300524 115.684144 17.23675 122.77282 
C 20.172976 129.861497 24.308252 136.391811 29.460941 142.076927 
C 34.61363 147.762044 40.707171 152.517489 47.473913 156.134388 
C 54.240655 159.751288 61.580054 162.175897 69.169736 163.30172 
C 76.759418 164.427543 84.486612 164.237851 92.011911 162.740976 
C 99.53721 161.244101 106.748797 158.462285 113.329916 154.517714 
C 119.911034 150.573144 125.763896 145.52443 130.631424 139.593331 
C 135.498951 133.662232 139.308818 126.936876 141.893682 119.712664 
C 144.478546 112.488453 145.8 104.872728 145.8 97.2 
C 145.8 89.527272 144.478546 81.911547 141.893682 74.687336 
C 139.308818 67.463124 135.498951 60.737768 130.631424 54.806669 
C 125.763896 48.87557 119.911034 43.826856 113.329916 39.882286 
C 106.748797 35.937715 99.53721 33.155899 92.011911 31.659024 
" clip-path="url(#pcb1c872b96)" style="fill: none; stroke: #b7e1a1; stroke-width: 10.63125; stroke-linejoin: miter"/>
   </g>
   <g id="patch_3">
    <path d="M 109.806514 59.631692 
C 106.111601 56.599356 101.989466 54.128643 97.573415 52.299455 
C 93.157363 50.470266 88.495516 49.302534 83.738633 48.834022 
C 78.98175 48.36551 74.181666 48.601323 69.49361 49.533835 
C 64.805555 50.466348 60.280614 52.085397 56.065119 54.338627 
C 51.849623 56.591856 47.98951 59.454711 44.60961 62.83461 
C 41.229711 66.21451 38.366856 70.074623 36.113627 74.290119 
C 33.860397 78.505614 32.241348 83.030555 31.308835 87.71861 
C 30.376323 92.406666 30.14051 97.20675 30.609022 101.963633 
C 31.077534 106.720516 32.245266 111.382363 34.074455 115.798415 
C 35.903643 120.214466 38.374356 124.336601 41.406692 128.031514 
C 44.439028 131.726426 47.999945 134.953853 51.974287 137.609423 
C 55.948628 140.264993 60.293086 142.319769 64.867165 143.7073 
C 69.441244 145.094832 74.1951 145.8 78.975 145.8 
C 83.7549 145.8 88.508756 145.094832 93.082835 143.7073 
C 97.656914 142.319769 102.001372 140.264993 105.975713 137.609423 
C 109.950055 134.953853 113.510972 131.726426 116.543308 128.031514 
" clip-path="url(#pcb1c872b96)" style="fill: none; stroke: #ffd700; stroke-width: 12.15; stroke-linejoin: miter"/>
   </g>
   <g id="patch_4">
    <path d="M 131.966664 161.770529 
C 141.513954 153.935271 149.205712 144.079194 154.486356 132.914211 
C 159.766999 121.749229 162.50625 109.550791 162.50625 97.2 
C 162.50625 84.849209 159.766999 72.650771 154.486356 61.485789 
C 149.205712 50.320806 141.513954 40.464729 131.966664 32.629471 
" clip-path="url(#pcb1c872b96)" style="fill: none; stroke: #95d0fc; stroke-width: 11.390625; stroke-linejoin: miter"/>
   </g>
   <g id="patch_5">
    <path d="M 156.35106 163.285398 
C 172.082263 144.866525 180.73125 121.42242 180.73125 97.2 
C 180.73125 72.97758 172.082263 49.533475 156.35106 31.114602 
" clip-path="url(#pcb1c872b96)" style="fill: none; stroke: #d6b4fc; stroke-width: 12.15; stroke-linejoin: miter"/>
   </g>
  </g>
 </g>
 <defs>
  <clipPath id="pcb1c872b96">
   <rect x="0" y="0" width="194.4" height="194.4"/>
  </clipPath>
 </defs>
</svg>
