<?xml version="1.0" encoding="utf-8" standalone="no"?>
<!DOCTYPE svg PUBLIC "-//W3C//DTD SVG 1.1//EN"
  "http://www.w3.org/Graphics/SVG/1.1/DTD/svg11.dtd">
<svg xmlns:xlink="http://www.w3.org/1999/xlink" width="184.32pt" height="184.32pt" viewBox="0 0 184.32 184.32" xmlns="http://www.w3.org/2000/svg" version="1.1">
 <metadata>
  <rdf:RDF xmlns:dc="http://purl.org/dc/elements/1.1/" xmlns:cc="http://creativecommons.org/ns#" xmlns:rdf="http://www.w3.org/1999/02/22-rdf-syntax-ns#">
   <cc:Work>
    <dc:type rdf:resource="http://purl.org/dc/dcmitype/StillImage"/>
    <dc:date>2025-08-05T19:43:11.233661</dc:date>
    <dc:format>image/svg+xml</dc:format>
    <dc:creator>
     <cc:Agent>
      <dc:title>Matplotlib v3.10.3, https://matplotlib.org/</dc:title>
     </cc:Agent>
    </dc:creator>
   </cc:Work>
  </rdf:RDF>
 </metadata>
 <defs>
  <style type="text/css">*{stroke-linejoin: round; stroke-linecap: butt}</style>
 </defs>
 <g id="figure_1">
  <g id="patch_1">
   <path d="M 0 184.32 
L 184.32 184.32 
L 184.32 0 
L 0 0 
L 0 184.32 
z
" style="fill: none"/>
  </g>
  <g id="axes_1">
   <g id="patch_2">
    <path d="M 48.31907 39.478085 
C 42.270226 43.519794 36.962414 48.573251 32.628771 54.416492 
C 28.295128 60.259733 25.000047 66.805934 22.88826 73.767563 
C 20.776473 80.729192 19.879358 88.002808 20.23632 95.268928 
C 20.593281 102.535048 22.199016 109.685707 24.982993 116.406822 
C 27.76697 123.127938 31.687824 129.319643 36.573337 134.709975 
C 41.45885 140.100308 47.236429 144.609175 53.652303 148.038531 
C 60.068177 151.467887 67.027014 153.766777 74.223157 154.834224 
C 81.4193 155.901671 88.745825 155.721815 95.880923 154.302555 
C 103.016021 152.883296 109.853675 150.245722 116.09355 146.505685 
C 122.333425 142.765647 127.882805 137.978719 132.497942 132.355158 
C 137.113079 126.731598 140.725398 120.354964 143.176232 113.505341 
C 145.627066 106.655718 146.88 99.434883 146.88 92.16 
C 146.88 84.885117 145.627066 77.664282 143.176232 70.814659 
C 140.725398 63.965036 137.113079 57.588402 132.497942 51.964842 
C 127.882805 46.341281 122.333425 41.554353 116.09355 37.814315 
C 109.853675 34.074278 103.016021 31.436704 95.880923 30.017445 
" clip-path="url(#pca921539f5)" style="fill: none; stroke: #e6daa6; stroke-width: 11.52; stroke-linejoin: miter"/>
   </g>
   <g id="patch_3">
    <path d="M 128.321184 159.20971 
C 139.346941 151.842534 148.387143 141.868208 154.638131 130.173433 
C 160.889118 118.478658 164.16 105.420566 164.16 92.16 
C 164.16 78.899434 160.889118 65.841342 154.638131 54.146567 
C 148.387143 42.451792 139.346941 32.477466 128.321184 25.11029 
" clip-path="url(#pca921539f5)" style="fill: none; stroke: #e6daa6; stroke-width: 11.52; stroke-linejoin: miter"/>
   </g>
  </g>
 </g>
 <defs>
  <clipPath id="pca921539f5">
   <rect x="0" y="0" width="184.32" height="184.32"/>
  </clipPath>
 </defs>
</svg>
