<?xml version="1.0" encoding="utf-8" standalone="no"?>
<!DOCTYPE svg PUBLIC "-//W3C//DTD SVG 1.1//EN"
  "http://www.w3.org/Graphics/SVG/1.1/DTD/svg11.dtd">
<svg xmlns:xlink="http://www.w3.org/1999/xlink" width="194.4pt" height="194.4pt" viewBox="0 0 194.4 194.4" xmlns="http://www.w3.org/2000/svg" version="1.1">
 <metadata>
  <rdf:RDF xmlns:dc="http://purl.org/dc/elements/1.1/" xmlns:cc="http://creativecommons.org/ns#" xmlns:rdf="http://www.w3.org/1999/02/22-rdf-syntax-ns#">
   <cc:Work>
    <dc:type rdf:resource="http://purl.org/dc/dcmitype/StillImage"/>
    <dc:date>2025-01-11T17:20:40.301434</dc:date>
    <dc:format>image/svg+xml</dc:format>
    <dc:creator>
     <cc:Agent>
      <dc:title>Matplotlib v3.9.1, https://matplotlib.org/</dc:title>
     </cc:Agent>
    </dc:creator>
   </cc:Work>
  </rdf:RDF>
 </metadata>
 <defs>
  <style type="text/css">*{stroke-linejoin: round; stroke-linecap: butt}</style>
 </defs>
 <g id="figure_1">
  <g id="patch_1">
   <path d="M 0 194.4 
L 194.4 194.4 
L 194.4 0 
L 0 0 
L 0 194.4 
z
" style="fill: none"/>
  </g>
  <g id="axes_1">
   <g id="patch_2">
    <path d="M 50.961519 41.637043 
C 44.581879 45.899783 38.983796 51.229601 34.413157 57.392394 
C 29.842518 63.555187 26.367237 70.459383 24.139962 77.801726 
C 21.912687 85.144069 20.966511 92.815461 21.342994 100.478947 
C 21.719477 108.142433 23.413024 115.684144 26.34925 122.77282 
C 29.285476 129.861497 33.420752 136.391811 38.573441 142.076927 
C 43.72613 147.762044 49.819671 152.517489 56.586413 156.134388 
C 63.353155 159.751288 70.692554 162.175897 78.282236 163.30172 
C 85.871918 164.427543 93.599112 164.237851 101.124411 162.740976 
C 108.64971 161.244101 115.861297 158.462285 122.442416 154.517714 
C 129.023534 150.573144 134.876396 145.52443 139.743924 139.593331 
C 144.611451 133.662232 148.421318 126.936876 151.006182 119.712664 
C 153.591046 112.488453 154.9125 104.872728 154.9125 97.2 
C 154.9125 89.527272 153.591046 81.911547 151.006182 74.687336 
C 148.421318 67.463124 144.611451 60.737768 139.743924 54.806669 
C 134.876396 48.87557 129.023534 43.826856 122.442416 39.882286 
C 115.861297 35.937715 108.64971 33.155899 101.124411 31.659024 
" clip-path="url(#p381148c1d8)" style="fill: none; stroke: #e6daa6; stroke-width: 7.509113; stroke-linejoin: miter"/>
   </g>
   <g id="patch_3">
    <path d="M 137.329464 162.784138 
C 147.504796 155.144283 155.763906 145.240181 161.451342 133.857834 
C 167.138779 122.475487 170.1 109.92418 170.1 97.2 
C 170.1 84.47582 167.138779 71.924513 161.451342 60.542166 
C 155.763906 49.159819 147.504796 39.255717 137.329464 31.615862 
" clip-path="url(#p381148c1d8)" style="fill: none; stroke: #e6daa6; stroke-width: 9.386391; stroke-linejoin: miter"/>
   </g>
  </g>
 </g>
 <defs>
  <clipPath id="p381148c1d8">
   <rect x="0" y="0" width="194.4" height="194.4"/>
  </clipPath>
 </defs>
</svg>
