<?xml version="1.0" encoding="utf-8" standalone="no"?>
<!DOCTYPE svg PUBLIC "-//W3C//DTD SVG 1.1//EN"
  "http://www.w3.org/Graphics/SVG/1.1/DTD/svg11.dtd">
<svg xmlns:xlink="http://www.w3.org/1999/xlink" width="172.8pt" height="172.8pt" viewBox="0 0 172.8 172.8" xmlns="http://www.w3.org/2000/svg" version="1.1">
 <metadata>
  <rdf:RDF xmlns:dc="http://purl.org/dc/elements/1.1/" xmlns:cc="http://creativecommons.org/ns#" xmlns:rdf="http://www.w3.org/1999/02/22-rdf-syntax-ns#">
   <cc:Work>
    <dc:type rdf:resource="http://purl.org/dc/dcmitype/StillImage"/>
    <dc:date>2025-10-01T18:10:31.639499</dc:date>
    <dc:format>image/svg+xml</dc:format>
    <dc:creator>
     <cc:Agent>
      <dc:title>Matplotlib v3.10.6, https://matplotlib.org/</dc:title>
     </cc:Agent>
    </dc:creator>
   </cc:Work>
  </rdf:RDF>
 </metadata>
 <defs>
  <style type="text/css">*{stroke-linejoin: round; stroke-linecap: butt}</style>
 </defs>
 <g id="figure_1">
  <g id="patch_1">
   <path d="M 0 172.8 
L 172.8 172.8 
L 172.8 0 
L 0 0 
L 0 172.8 
z
" style="fill: none"/>
  </g>
  <g id="axes_1">
   <g id="patch_2">
    <path d="M 120.235335 149.303002 
C 130.590332 142.399671 139.082254 133.045038 144.9546 122.072459 
C 150.826946 111.09988 153.9 98.845157 153.9 86.4 
C 153.9 73.954843 150.826946 61.70012 144.9546 50.727541 
C 139.082254 39.754962 130.590332 30.400329 120.235335 23.496998 
" clip-path="url(#pb5cd4d438f)" style="fill: none; stroke: #e6daa6; stroke-width: 12.15; stroke-linejoin: miter"/>
   </g>
   <g id="patch_3">
    <path d="M 45.350808 36.976213 
C 39.698121 40.744671 34.733612 45.455111 30.673667 50.90222 
C 26.613722 56.349329 23.518199 62.452799 21.522022 68.946598 
C 19.525846 75.440396 18.658445 82.228785 18.957627 89.015879 
C 19.25681 95.802972 20.718165 102.488706 23.277997 108.781671 
C 25.837829 115.074636 29.458397 120.882053 33.981892 125.950795 
C 38.505388 131.019536 43.865119 135.274872 49.827472 138.531326 
C 55.789825 141.78778 62.266896 143.997341 68.976368 145.063702 
C 75.685841 146.130062 82.528796 146.0375 89.206971 144.79005 
C 95.885145 143.542601 102.300082 141.158654 108.172172 137.742121 
C 114.044262 134.325587 119.286933 129.926836 123.671673 124.737597 
C 128.056412 119.548357 131.518575 113.645135 133.907257 107.285234 
C 136.295938 100.925332 137.575922 94.202517 137.691416 87.409814 
C 137.80691 80.617112 136.756213 73.854668 134.58512 67.417238 
C 132.414028 60.979808 129.154549 54.9623 124.948755 49.626999 
C 120.742961 44.291697 115.652859 39.717261 109.90031 36.103077 
C 104.147761 32.488893 97.817576 29.888246 91.185669 28.414489 
" clip-path="url(#pb5cd4d438f)" style="fill: none; stroke: #e6daa6; stroke-width: 12.15; stroke-linejoin: miter"/>
   </g>
  </g>
 </g>
 <defs>
  <clipPath id="pb5cd4d438f">
   <rect x="0" y="0" width="172.8" height="172.8"/>
  </clipPath>
 </defs>
</svg>
