<?xml version="1.0" encoding="utf-8" standalone="no"?>
<!DOCTYPE svg PUBLIC "-//W3C//DTD SVG 1.1//EN"
  "http://www.w3.org/Graphics/SVG/1.1/DTD/svg11.dtd">
<svg xmlns:xlink="http://www.w3.org/1999/xlink" width="288pt" height="288pt" viewBox="0 0 288 288" xmlns="http://www.w3.org/2000/svg" version="1.1">
 <metadata>
  <rdf:RDF xmlns:dc="http://purl.org/dc/elements/1.1/" xmlns:cc="http://creativecommons.org/ns#" xmlns:rdf="http://www.w3.org/1999/02/22-rdf-syntax-ns#">
   <cc:Work>
    <dc:type rdf:resource="http://purl.org/dc/dcmitype/StillImage"/>
    <dc:date>2024-12-01T18:16:35.808682</dc:date>
    <dc:format>image/svg+xml</dc:format>
    <dc:creator>
     <cc:Agent>
      <dc:title>Matplotlib v3.9.1, https://matplotlib.org/</dc:title>
     </cc:Agent>
    </dc:creator>
   </cc:Work>
  </rdf:RDF>
 </metadata>
 <defs>
  <style type="text/css">*{stroke-linejoin: round; stroke-linecap: butt}</style>
 </defs>
 <g id="figure_1">
  <g id="patch_1">
   <path d="M 0 288 
L 288 288 
L 288 0 
L 0 0 
L 0 288 
z
" style="fill: none"/>
  </g>
  <g id="axes_1">
   <g id="patch_2">
    <path d="M 75.498547 61.684508 
C 66.047228 67.999678 57.753771 75.895705 50.982454 85.025769 
C 44.211138 94.155833 39.062574 104.384272 35.762907 115.261817 
C 32.463239 126.139362 31.061497 137.504387 31.61925 148.8577 
C 32.177002 160.211012 34.685962 171.383917 39.035926 181.88566 
C 43.385891 192.387403 49.512225 202.061942 57.145839 210.484337 
C 64.779452 218.906731 73.80692 225.951836 83.831723 231.310205 
C 93.856526 236.668574 104.729709 240.260588 115.973683 241.928474 
C 127.217657 243.59636 138.665351 243.315335 149.813942 241.097743 
C 160.962533 238.88015 171.646367 234.758941 181.396172 228.915132 
C 191.145977 223.071324 199.816883 215.591749 207.028035 206.804935 
C 214.239186 198.018122 219.883434 188.054631 223.712862 177.352095 
C 227.542291 166.64956 229.5 155.367005 229.5 144 
C 229.5 132.632995 227.542291 121.35044 223.712862 110.647905 
C 219.883434 99.945369 214.239186 89.981878 207.028035 81.195065 
C 199.816883 72.408251 191.145977 64.928676 181.396172 59.084868 
C 171.646367 53.241059 160.962533 49.11985 149.813942 46.902257 
" clip-path="url(#p41b1373639)" style="fill: none; stroke: #c0c0c0; stroke-width: 12.375; stroke-linejoin: miter"/>
   </g>
   <g id="patch_3">
    <path d="M 203.451057 241.161686 
C 218.525623 229.843382 230.761342 215.170639 239.187174 198.307902 
C 247.613006 181.445166 252 162.850638 252 144 
C 252 125.149362 247.613006 106.554834 239.187174 89.692098 
C 230.761342 72.829361 218.525623 58.156618 203.451057 46.838314 
" clip-path="url(#p41b1373639)" style="fill: none; stroke: #c0c0c0; stroke-width: 16.875; stroke-linejoin: miter"/>
   </g>
  </g>
 </g>
 <defs>
  <clipPath id="p41b1373639">
   <rect x="0" y="0" width="288" height="288"/>
  </clipPath>
 </defs>
</svg>
