<?xml version="1.0" encoding="utf-8" standalone="no"?>
<!DOCTYPE svg PUBLIC "-//W3C//DTD SVG 1.1//EN"
  "http://www.w3.org/Graphics/SVG/1.1/DTD/svg11.dtd">
<svg xmlns:xlink="http://www.w3.org/1999/xlink" width="288pt" height="288pt" viewBox="0 0 288 288" xmlns="http://www.w3.org/2000/svg" version="1.1">
 <metadata>
  <rdf:RDF xmlns:dc="http://purl.org/dc/elements/1.1/" xmlns:cc="http://creativecommons.org/ns#" xmlns:rdf="http://www.w3.org/1999/02/22-rdf-syntax-ns#">
   <cc:Work>
    <dc:type rdf:resource="http://purl.org/dc/dcmitype/StillImage"/>
    <dc:date>2024-11-29T20:52:12.869571</dc:date>
    <dc:format>image/svg+xml</dc:format>
    <dc:creator>
     <cc:Agent>
      <dc:title>Matplotlib v3.9.1, https://matplotlib.org/</dc:title>
     </cc:Agent>
    </dc:creator>
   </cc:Work>
  </rdf:RDF>
 </metadata>
 <defs>
  <style type="text/css">*{stroke-linejoin: round; stroke-linecap: butt}</style>
 </defs>
 <g id="figure_1">
  <g id="patch_1">
   <path d="M 0 288 
L 288 288 
L 288 0 
L 0 0 
L 0 288 
z
" style="fill: none"/>
  </g>
  <g id="axes_1">
   <g id="patch_2">
    <path d="M 88.998547 61.684508 
C 79.547228 67.999678 71.253771 75.895705 64.482454 85.025769 
C 57.711138 94.155833 52.562574 104.384272 49.262907 115.261817 
C 45.963239 126.139362 44.561497 137.504387 45.11925 148.8577 
C 45.677002 160.211012 48.185962 171.383917 52.535926 181.88566 
C 56.885891 192.387403 63.012225 202.061942 70.645839 210.484337 
C 78.279452 218.906731 87.30692 225.951836 97.331723 231.310205 
C 107.356526 236.668574 118.229709 240.260588 129.473683 241.928474 
C 140.717657 243.59636 152.165351 243.315335 163.313942 241.097743 
C 174.462533 238.88015 185.146367 234.758941 194.896172 228.915132 
C 204.645977 223.071324 213.316883 215.591749 220.528035 206.804935 
C 227.739186 198.018122 233.383434 188.054631 237.212862 177.352095 
C 241.042291 166.64956 243 155.367005 243 144 
C 243 132.632995 241.042291 121.35044 237.212862 110.647905 
C 233.383434 99.945369 227.739186 89.981878 220.528035 81.195065 
C 213.316883 72.408251 204.645977 64.928676 194.896172 59.084868 
C 185.146367 53.241059 174.462533 49.11985 163.313942 46.902257 
" clip-path="url(#p0f2fde734a)" style="fill: none; stroke: #c0c0c0; stroke-width: 12.375; stroke-linejoin: miter"/>
   </g>
   <g id="patch_3">
    <path d="M 209.38324 241.025934 
C 225.273887 230.317643 238.293203 215.86774 247.292882 198.950709 
C 256.292562 182.033678 261 163.161946 261 144 
C 261 124.838054 256.292562 105.966322 247.292882 89.049291 
C 238.293203 72.13226 225.273887 57.682357 209.38324 46.974066 
" clip-path="url(#p0f2fde734a)" style="fill: none; stroke: #c0c0c0; stroke-width: 12.375; stroke-linejoin: miter"/>
   </g>
  </g>
 </g>
 <defs>
  <clipPath id="p0f2fde734a">
   <rect x="0" y="0" width="288" height="288"/>
  </clipPath>
 </defs>
</svg>
