<?xml version="1.0" encoding="utf-8" standalone="no"?>
<!DOCTYPE svg PUBLIC "-//W3C//DTD SVG 1.1//EN"
  "http://www.w3.org/Graphics/SVG/1.1/DTD/svg11.dtd">
<svg xmlns:xlink="http://www.w3.org/1999/xlink" width="288pt" height="184.32pt" viewBox="0 0 288 184.32" xmlns="http://www.w3.org/2000/svg" version="1.1">
 <metadata>
  <rdf:RDF xmlns:dc="http://purl.org/dc/elements/1.1/" xmlns:cc="http://creativecommons.org/ns#" xmlns:rdf="http://www.w3.org/1999/02/22-rdf-syntax-ns#">
   <cc:Work>
    <dc:type rdf:resource="http://purl.org/dc/dcmitype/StillImage"/>
    <dc:date>2025-02-16T13:35:04.905302</dc:date>
    <dc:format>image/svg+xml</dc:format>
    <dc:creator>
     <cc:Agent>
      <dc:title>Matplotlib v3.9.1, https://matplotlib.org/</dc:title>
     </cc:Agent>
    </dc:creator>
   </cc:Work>
  </rdf:RDF>
 </metadata>
 <defs>
  <style type="text/css">*{stroke-linejoin: round; stroke-linecap: butt}</style>
 </defs>
 <g id="figure_1">
  <g id="patch_1">
   <path d="M 0 184.32 
L 288 184.32 
L 288 0 
L 0 0 
L 0 184.32 
z
" style="fill: none"/>
  </g>
  <g id="axes_1">
   <g id="patch_2">
    <path d="M 0 0 
L 0 184.32 
L 198.266843 184.32 
L 75.108157 0 
z
" clip-path="url(#p4705f9582b)" style="fill: #00bfff; stroke: #00bfff; stroke-linejoin: miter"/>
   </g>
   <g id="patch_3">
    <path d="M 288 184.32 
L 288 0 
L 75.108157 0 
L 198.266843 184.32 
z
" clip-path="url(#p4705f9582b)" style="fill: #9370db; stroke: #9370db; stroke-linejoin: miter"/>
   </g>
   <g id="patch_4">
    <path d="M 100.87907 39.478085 
C 94.830226 43.519794 89.522414 48.573251 85.188771 54.416492 
C 80.855128 60.259733 77.560047 66.805934 75.44826 73.767563 
C 73.336473 80.729192 72.439358 88.002808 72.79632 95.268928 
C 73.153281 102.535048 74.759016 109.685707 77.542993 116.406822 
C 80.32697 123.127938 84.247824 129.319643 89.133337 134.709975 
C 94.01885 140.100308 99.796429 144.609175 106.212303 148.038531 
C 112.628177 151.467887 119.587014 153.766777 126.783157 154.834224 
C 133.9793 155.901671 141.305825 155.721815 148.440923 154.302555 
C 155.576021 152.883296 162.413675 150.245722 168.65355 146.505685 
C 174.893425 142.765647 180.442805 137.978719 185.057942 132.355158 
C 189.673079 126.731598 193.285398 120.354964 195.736232 113.505341 
C 198.187066 106.655718 199.44 99.434883 199.44 92.16 
C 199.44 84.885117 198.187066 77.664282 195.736232 70.814659 
C 193.285398 63.965036 189.673079 57.588402 185.057942 51.964842 
C 180.442805 46.341281 174.893425 41.554353 168.65355 37.814315 
C 162.413675 34.074278 155.576021 31.436704 148.440923 30.017445 
" clip-path="url(#p4705f9582b)" style="fill: none; stroke: #e6daa6; stroke-width: 11.52; stroke-linejoin: miter"/>
   </g>
   <g id="patch_5">
    <path d="M 180.881184 159.20971 
C 191.906941 151.842534 200.947143 141.868208 207.198131 130.173433 
C 213.449118 118.478658 216.72 105.420566 216.72 92.16 
C 216.72 78.899434 213.449118 65.841342 207.198131 54.146567 
C 200.947143 42.451792 191.906941 32.477466 180.881184 25.11029 
" clip-path="url(#p4705f9582b)" style="fill: none; stroke: #e6daa6; stroke-width: 11.52; stroke-linejoin: miter"/>
   </g>
  </g>
 </g>
 <defs>
  <clipPath id="p4705f9582b">
   <rect x="0" y="0" width="288" height="184.32"/>
  </clipPath>
 </defs>
</svg>
