<?xml version="1.0" encoding="utf-8" standalone="no"?>
<!DOCTYPE svg PUBLIC "-//W3C//DTD SVG 1.1//EN"
  "http://www.w3.org/Graphics/SVG/1.1/DTD/svg11.dtd">
<svg xmlns:xlink="http://www.w3.org/1999/xlink" width="465.993789pt" height="288pt" viewBox="0 0 465.993789 288" xmlns="http://www.w3.org/2000/svg" version="1.1">
 <metadata>
  <rdf:RDF xmlns:dc="http://purl.org/dc/elements/1.1/" xmlns:cc="http://creativecommons.org/ns#" xmlns:rdf="http://www.w3.org/1999/02/22-rdf-syntax-ns#">
   <cc:Work>
    <dc:type rdf:resource="http://purl.org/dc/dcmitype/StillImage"/>
    <dc:date>2025-01-08T14:55:28.300023</dc:date>
    <dc:format>image/svg+xml</dc:format>
    <dc:creator>
     <cc:Agent>
      <dc:title>Matplotlib v3.9.1, https://matplotlib.org/</dc:title>
     </cc:Agent>
    </dc:creator>
   </cc:Work>
  </rdf:RDF>
 </metadata>
 <defs>
  <style type="text/css">*{stroke-linejoin: round; stroke-linecap: butt}</style>
 </defs>
 <g id="figure_1">
  <g id="patch_1">
   <path d="M 0 288 
L 465.993789 288 
L 465.993789 0 
L 0 0 
L 0 288 
z
" style="fill: none"/>
  </g>
  <g id="axes_1">
   <g id="patch_2">
    <path d="M -0 0 
L -0 288 
L 316.290618 288 
L 123.855171 0 
z
" clip-path="url(#pa1603c8cab)" style="fill: #00bfff; stroke: #00bfff; stroke-linejoin: miter"/>
   </g>
   <g id="patch_3">
    <path d="M 465.993789 288 
L 465.993789 0 
L 123.855171 0 
L 316.290618 288 
z
" clip-path="url(#pa1603c8cab)" style="fill: #9370db; stroke: #9370db; stroke-linejoin: miter"/>
   </g>
   <g id="patch_4">
    <path d="M 164.495441 61.684508 
C 155.044122 67.999678 146.750666 75.895705 139.979349 85.025769 
C 133.208032 94.155833 128.059468 104.384272 124.759801 115.261817 
C 121.460134 126.139362 120.058392 137.504387 120.616144 148.8577 
C 121.173897 160.211012 123.682856 171.383917 128.032821 181.88566 
C 132.382785 192.387403 138.509119 202.061942 146.142733 210.484337 
C 153.776347 218.906731 162.803814 225.951836 172.828617 231.310205 
C 182.853421 236.668574 193.726603 240.260588 204.970577 241.928474 
C 216.214551 243.59636 227.662245 243.315335 238.810836 241.097743 
C 249.959427 238.88015 260.643261 234.758941 270.393066 228.915132 
C 280.142871 223.071324 288.813778 215.591749 296.024929 206.804935 
C 303.236081 198.018122 308.880328 188.054631 312.709757 177.352095 
C 316.539185 166.64956 318.496894 155.367005 318.496894 144 
C 318.496894 132.632995 316.539185 121.35044 312.709757 110.647905 
C 308.880328 99.945369 303.236081 89.981878 296.024929 81.195065 
C 288.813778 72.408251 280.142871 64.928676 270.393066 59.084868 
C 260.643261 53.241059 249.959427 49.11985 238.810836 46.902257 
" clip-path="url(#pa1603c8cab)" style="fill: none; stroke: #e6daa6; stroke-width: 18; stroke-linejoin: miter"/>
   </g>
   <g id="patch_5">
    <path d="M 289.498744 248.765171 
C 306.72649 237.253959 320.851806 221.669075 330.618974 203.395989 
C 340.386142 185.122903 345.496894 164.719634 345.496894 144 
C 345.496894 123.280366 340.386142 102.877097 330.618974 84.604011 
C 320.851806 66.330925 306.72649 50.746041 289.498744 39.234829 
" clip-path="url(#pa1603c8cab)" style="fill: none; stroke: #e6daa6; stroke-width: 18; stroke-linejoin: miter"/>
   </g>
  </g>
 </g>
 <defs>
  <clipPath id="pa1603c8cab">
   <rect x="0" y="0" width="465.993789" height="288"/>
  </clipPath>
 </defs>
</svg>
