<?xml version="1.0" encoding="utf-8" standalone="no"?>
<!DOCTYPE svg PUBLIC "-//W3C//DTD SVG 1.1//EN"
  "http://www.w3.org/Graphics/SVG/1.1/DTD/svg11.dtd">
<svg xmlns:xlink="http://www.w3.org/1999/xlink" width="314.545807pt" height="194.4pt" viewBox="0 0 314.545807 194.4" xmlns="http://www.w3.org/2000/svg" version="1.1">
 <metadata>
  <rdf:RDF xmlns:dc="http://purl.org/dc/elements/1.1/" xmlns:cc="http://creativecommons.org/ns#" xmlns:rdf="http://www.w3.org/1999/02/22-rdf-syntax-ns#">
   <cc:Work>
    <dc:type rdf:resource="http://purl.org/dc/dcmitype/StillImage"/>
    <dc:date>2025-01-11T17:37:45.518854</dc:date>
    <dc:format>image/svg+xml</dc:format>
    <dc:creator>
     <cc:Agent>
      <dc:title>Matplotlib v3.9.1, https://matplotlib.org/</dc:title>
     </cc:Agent>
    </dc:creator>
   </cc:Work>
  </rdf:RDF>
 </metadata>
 <defs>
  <style type="text/css">*{stroke-linejoin: round; stroke-linecap: butt}</style>
 </defs>
 <g id="figure_1">
  <g id="patch_1">
   <path d="M 0 194.4 
L 314.545807 194.4 
L 314.545807 0 
L 0 0 
L 0 194.4 
z
" style="fill: none"/>
  </g>
  <g id="axes_1">
   <g id="patch_2">
    <path d="M 0 0 
L 0 194.4 
L 214.255542 194.4 
L 84.361615 0 
z
" clip-path="url(#p3c989f9cb0)" style="fill: #00bfff; stroke: #00bfff; stroke-linejoin: miter"/>
   </g>
   <g id="patch_3">
    <path d="M 314.545807 194.4 
L 314.545807 0 
L 84.361615 0 
L 214.255542 194.4 
z
" clip-path="url(#p3c989f9cb0)" style="fill: #9370db; stroke: #9370db; stroke-linejoin: miter"/>
   </g>
   <g id="patch_4">
    <path d="M 111.793798 41.637043 
C 105.414158 45.899783 99.816074 51.229601 95.245435 57.392394 
C 90.674797 63.555187 87.199516 70.459383 84.972241 77.801726 
C 82.744965 85.144069 81.798789 92.815461 82.175272 100.478947 
C 82.551755 108.142433 84.245303 115.684144 87.181529 122.77282 
C 90.117755 129.861497 94.25303 136.391811 99.40572 142.076927 
C 104.558409 147.762044 110.65195 152.517489 117.418692 156.134388 
C 124.185434 159.751288 131.524832 162.175897 139.114515 163.30172 
C 146.704197 164.427543 154.431391 164.237851 161.956689 162.740976 
C 169.481988 161.244101 176.693576 158.462285 183.274695 154.517714 
C 189.855813 150.573144 195.708675 145.52443 200.576202 139.593331 
C 205.443729 133.662232 209.253597 126.936876 211.838461 119.712664 
C 214.423325 112.488453 215.744779 104.872728 215.744779 97.2 
C 215.744779 89.527272 214.423325 81.911547 211.838461 74.687336 
C 209.253597 67.463124 205.443729 60.737768 200.576202 54.806669 
C 195.708675 48.87557 189.855813 43.826856 183.274695 39.882286 
C 176.693576 35.937715 169.481988 33.155899 161.956689 31.659024 
" clip-path="url(#p3c989f9cb0)" style="fill: none; stroke: #e6daa6; stroke-width: 12.15; stroke-linejoin: miter"/>
   </g>
   <g id="patch_5">
    <path d="M 196.171027 167.916491 
C 207.799756 160.146422 217.334344 149.626625 223.927182 137.292292 
C 230.520021 124.95796 233.969779 111.185753 233.969779 97.2 
C 233.969779 83.214247 230.520021 69.44204 223.927182 57.107708 
C 217.334344 44.773375 207.799756 34.253578 196.171027 26.483509 
" clip-path="url(#p3c989f9cb0)" style="fill: none; stroke: #e6daa6; stroke-width: 12.15; stroke-linejoin: miter"/>
   </g>
  </g>
 </g>
 <defs>
  <clipPath id="p3c989f9cb0">
   <rect x="0" y="0" width="314.545807" height="194.4"/>
  </clipPath>
 </defs>
</svg>
