<?xml version="1.0" encoding="utf-8" standalone="no"?>
<!DOCTYPE svg PUBLIC "-//W3C//DTD SVG 1.1//EN"
  "http://www.w3.org/Graphics/SVG/1.1/DTD/svg11.dtd">
<svg xmlns:xlink="http://www.w3.org/1999/xlink" width="314.545807pt" height="194.4pt" viewBox="0 0 314.545807 194.4" xmlns="http://www.w3.org/2000/svg" version="1.1">
 <metadata>
  <rdf:RDF xmlns:dc="http://purl.org/dc/elements/1.1/" xmlns:cc="http://creativecommons.org/ns#" xmlns:rdf="http://www.w3.org/1999/02/22-rdf-syntax-ns#">
   <cc:Work>
    <dc:type rdf:resource="http://purl.org/dc/dcmitype/StillImage"/>
    <dc:date>2025-01-11T17:20:40.414214</dc:date>
    <dc:format>image/svg+xml</dc:format>
    <dc:creator>
     <cc:Agent>
      <dc:title>Matplotlib v3.9.1, https://matplotlib.org/</dc:title>
     </cc:Agent>
    </dc:creator>
   </cc:Work>
  </rdf:RDF>
 </metadata>
 <defs>
  <style type="text/css">*{stroke-linejoin: round; stroke-linecap: butt}</style>
 </defs>
 <g id="figure_1">
  <g id="patch_1">
   <path d="M 0 194.4 
L 314.545807 194.4 
L 314.545807 0 
L 0 0 
L 0 194.4 
z
" style="fill: none"/>
  </g>
  <g id="axes_1">
   <g id="patch_2">
    <path d="M 0 0 
L 0 194.4 
L 213.496167 194.4 
L 83.60224 0 
z
" clip-path="url(#p50566925a9)" style="fill: #00bfff; stroke: #00bfff; stroke-linejoin: miter"/>
   </g>
   <g id="patch_3">
    <path d="M 314.545807 194.4 
L 314.545807 0 
L 83.60224 0 
L 213.496167 194.4 
z
" clip-path="url(#p50566925a9)" style="fill: #9370db; stroke: #9370db; stroke-linejoin: miter"/>
   </g>
   <g id="patch_4">
    <path d="M 111.034423 41.637043 
C 104.654783 45.899783 99.056699 51.229601 94.48606 57.392394 
C 89.915422 63.555187 86.440141 70.459383 84.212866 77.801726 
C 81.98559 85.144069 81.039414 92.815461 81.415897 100.478947 
C 81.79238 108.142433 83.485928 115.684144 86.422154 122.77282 
C 89.35838 129.861497 93.493655 136.391811 98.646345 142.076927 
C 103.799034 147.762044 109.892575 152.517489 116.659317 156.134388 
C 123.426059 159.751288 130.765457 162.175897 138.35514 163.30172 
C 145.944822 164.427543 153.672016 164.237851 161.197314 162.740976 
C 168.722613 161.244101 175.934201 158.462285 182.51532 154.517714 
C 189.096438 150.573144 194.9493 145.52443 199.816827 139.593331 
C 204.684354 133.662232 208.494222 126.936876 211.079086 119.712664 
C 213.66395 112.488453 214.985404 104.872728 214.985404 97.2 
C 214.985404 89.527272 213.66395 81.911547 211.079086 74.687336 
C 208.494222 67.463124 204.684354 60.737768 199.816827 54.806669 
C 194.9493 48.87557 189.096438 43.826856 182.51532 39.882286 
C 175.934201 35.937715 168.722613 33.155899 161.197314 31.659024 
" clip-path="url(#p50566925a9)" style="fill: none; stroke: #e6daa6; stroke-width: 12.15; stroke-linejoin: miter"/>
   </g>
   <g id="patch_5">
    <path d="M 195.411652 167.916491 
C 207.040381 160.146422 216.574969 149.626625 223.167807 137.292292 
C 229.760646 124.95796 233.210404 111.185753 233.210404 97.2 
C 233.210404 83.214247 229.760646 69.44204 223.167807 57.107708 
C 216.574969 44.773375 207.040381 34.253578 195.411652 26.483509 
" clip-path="url(#p50566925a9)" style="fill: none; stroke: #e6daa6; stroke-width: 12.15; stroke-linejoin: miter"/>
   </g>
  </g>
 </g>
 <defs>
  <clipPath id="p50566925a9">
   <rect x="0" y="0" width="314.545807" height="194.4"/>
  </clipPath>
 </defs>
</svg>
